<mxfile host="app.diagrams.net" modified="2023-12-12T22:14:38.631Z" agent="Mozilla/5.0 (Windows NT 10.0; Win64; x64) AppleWebKit/537.36 (KHTML, like Gecko) Chrome/119.0.0.0 Safari/537.36" version="22.1.8" etag="WRehGghCG_eI4VyEuzhK" type="github">
  <diagram name="Halaman-1" id="R6n8iCt0REOxQqtH1wpn">
    <mxGraphModel>
      <root>
        <mxCell id="0" />
        <mxCell id="1" parent="0" />
      </root>
    </mxGraphModel>
  </diagram>
</mxfile>
